{
	"asset":{
		"generator":"Khronos glTF Blender I/O v3.6.27",
		"version":"2.0"
	},
	"extensionsUsed":[
		"KHR_materials_specular",
		"KHR_materials_ior"
	],
	"scene":0,
	"scenes":[
		{
			"name":"Scene",
			"nodes":[
				0,
				1
			]
		}
	],
	"nodes":[
		{
			"mesh":0,
			"name":"Cube.002",
			"scale":[
				0.13526701927185059,
				0.08673859387636185,
				0.08673859387636185
			],
			"translation":[
				-0.05853698030114174,
				0.08430582284927368,
				-0.3286590278148651
			]
		},
		{
			"name":"Area.001",
			"rotation":[
				-0.7071068286895752,
				0,
				0,
				0.7071068286895752
			],
			"translation":[
				-0.01305307261645794,
				1.000659704208374,
				-0.11092439293861389
			]
		}
	],
	"materials":[
		{
			"doubleSided":true,
			"name":"Pantalones",
			"pbrMetallicRoughness":{
				"baseColorFactor":[
					0,
					0.030713390558958054,
					0.14126327633857727,
					1
				],
				"metallicFactor":0,
				"roughnessFactor":0.5
			}
		},
		{
			"doubleSided":true,
			"name":"Piernas",
			"pbrMetallicRoughness":{
				"baseColorFactor":[
					0,
					0.004515332169830799,
					0.017387202009558678,
					1
				],
				"metallicFactor":0,
				"roughnessFactor":0.5
			}
		},
		{
			"doubleSided":true,
			"extensions":{
				"KHR_materials_specular":{
					"specularColorFactor":[
						2.0072515563104267,
						2.0072515563104267,
						2.0072515563104267
					]
				},
				"KHR_materials_ior":{
					"ior":1.4500000476837158
				}
			},
			"name":"Face",
			"pbrMetallicRoughness":{
				"baseColorFactor":[
					0.0395454466342926,
					0.45641058683395386,
					0.7083757519721985,
					1
				],
				"metallicFactor":0.5354330539703369,
				"roughnessFactor":0.586614191532135
			}
		},
		{
			"doubleSided":true,
			"name":"Ojos",
			"pbrMetallicRoughness":{
				"baseColorFactor":[
					0,
					0,
					0,
					1
				],
				"metallicFactor":0,
				"roughnessFactor":0.5
			}
		},
		{
			"doubleSided":true,
			"name":"Boca",
			"pbrMetallicRoughness":{
				"baseColorFactor":[
					0.8000000715255737,
					0.06905626505613327,
					0.03273190185427666,
					1
				],
				"metallicFactor":0,
				"roughnessFactor":0.5
			}
		},
		{
			"doubleSided":true,
			"extensions":{
				"KHR_materials_specular":{
					"specularColorFactor":[
						1.279039298704556,
						1.279039298704556,
						1.279039298704556
					]
				},
				"KHR_materials_ior":{
					"ior":1.4500000476837158
				}
			},
			"name":"Brazos",
			"pbrMetallicRoughness":{
				"baseColorFactor":[
					0.0395454466342926,
					0.45641058683395386,
					0.7083757519721985,
					1
				],
				"metallicFactor":0.5118110179901123,
				"roughnessFactor":0.5
			}
		},
		{
			"doubleSided":true,
			"extensions":{
				"KHR_materials_specular":{
					"specularColorFactor":[
						1.2977113970013276,
						1.2977113970013276,
						1.2977113970013276
					]
				},
				"KHR_materials_ior":{
					"ior":1.4500000476837158
				}
			},
			"name":"brazo",
			"pbrMetallicRoughness":{
				"baseColorFactor":[
					0.0395454466342926,
					0.45641058683395386,
					0.7083757519721985,
					1
				],
				"metallicFactor":0.3858267664909363,
				"roughnessFactor":0.5
			}
		},
		{
			"doubleSided":true,
			"name":"Torax",
			"pbrMetallicRoughness":{
				"baseColorFactor":[
					0,
					0.030713390558958054,
					0.14126327633857727,
					1
				],
				"metallicFactor":0,
				"roughnessFactor":0.5
			}
		}
	],
	"meshes":[
		{
			"name":"Cube.016",
			"primitives":[
				{
					"attributes":{
						"POSITION":0,
						"NORMAL":1,
						"TEXCOORD_0":2
					},
					"indices":3,
					"material":0
				},
				{
					"attributes":{
						"POSITION":4,
						"NORMAL":5,
						"TEXCOORD_0":6
					},
					"indices":7,
					"material":1
				},
				{
					"attributes":{
						"POSITION":8,
						"NORMAL":9,
						"TEXCOORD_0":10
					},
					"indices":11,
					"material":2
				},
				{
					"attributes":{
						"POSITION":12,
						"NORMAL":13,
						"TEXCOORD_0":14
					},
					"indices":15,
					"material":3
				},
				{
					"attributes":{
						"POSITION":16,
						"NORMAL":17,
						"TEXCOORD_0":18
					},
					"indices":19,
					"material":4
				},
				{
					"attributes":{
						"POSITION":20,
						"NORMAL":21,
						"TEXCOORD_0":22
					},
					"indices":23,
					"material":5
				},
				{
					"attributes":{
						"POSITION":24,
						"NORMAL":25,
						"TEXCOORD_0":26
					},
					"indices":27,
					"material":6
				},
				{
					"attributes":{
						"POSITION":28,
						"NORMAL":29,
						"TEXCOORD_0":30
					},
					"indices":31,
					"material":7
				}
			]
		}
	],
	"accessors":[
		{
			"bufferView":0,
			"componentType":5126,
			"count":200,
			"max":[
				1.189817190170288,
				1.5965445041656494,
				0.6682639122009277
			],
			"min":[
				-0.3281150162220001,
				0.406849205493927,
				-1.3317360877990723
			],
			"type":"VEC3"
		},
		{
			"bufferView":1,
			"componentType":5126,
			"count":200,
			"type":"VEC3"
		},
		{
			"bufferView":2,
			"componentType":5126,
			"count":200,
			"type":"VEC2"
		},
		{
			"bufferView":3,
			"componentType":5123,
			"count":768,
			"type":"SCALAR"
		},
		{
			"bufferView":4,
			"componentType":5126,
			"count":160,
			"max":[
				1.0026054382324219,
				0.406849205493927,
				0.6597379446029663
			],
			"min":[
				-0.1553642600774765,
				-0.9713138937950134,
				-0.8044633865356445
			],
			"type":"VEC3"
		},
		{
			"bufferView":5,
			"componentType":5126,
			"count":160,
			"type":"VEC3"
		},
		{
			"bufferView":6,
			"componentType":5126,
			"count":160,
			"type":"VEC2"
		},
		{
			"bufferView":7,
			"componentType":5123,
			"count":408,
			"type":"SCALAR"
		},
		{
			"bufferView":8,
			"componentType":5126,
			"count":1984,
			"max":[
				1.3267534971237183,
				6.93778133392334,
				1.2046804428100586
			],
			"min":[
				-0.4454803466796875,
				3.164694309234619,
				-2.166860580444336
			],
			"type":"VEC3"
		},
		{
			"bufferView":9,
			"componentType":5126,
			"count":1984,
			"type":"VEC3"
		},
		{
			"bufferView":10,
			"componentType":5126,
			"count":1984,
			"type":"VEC2"
		},
		{
			"bufferView":11,
			"componentType":5123,
			"count":2880,
			"type":"SCALAR"
		},
		{
			"bufferView":12,
			"componentType":5126,
			"count":48,
			"max":[
				0.8930578231811523,
				5.373956203460693,
				1.3397157192230225
			],
			"min":[
				0.12340483069419861,
				4.42685604095459,
				0.876347541809082
			],
			"type":"VEC3"
		},
		{
			"bufferView":13,
			"componentType":5126,
			"count":48,
			"type":"VEC3"
		},
		{
			"bufferView":14,
			"componentType":5126,
			"count":48,
			"type":"VEC2"
		},
		{
			"bufferView":15,
			"componentType":5123,
			"count":72,
			"type":"SCALAR"
		},
		{
			"bufferView":16,
			"componentType":5126,
			"count":40,
			"max":[
				0.7487975358963013,
				4.498418807983398,
				1.32291579246521
			],
			"min":[
				0.27389174699783325,
				4.0358099937438965,
				0.8901090621948242
			],
			"type":"VEC3"
		},
		{
			"bufferView":17,
			"componentType":5126,
			"count":40,
			"type":"VEC3"
		},
		{
			"bufferView":18,
			"componentType":5126,
			"count":40,
			"type":"VEC2"
		},
		{
			"bufferView":19,
			"componentType":5123,
			"count":60,
			"type":"SCALAR"
		},
		{
			"bufferView":20,
			"componentType":5126,
			"count":74,
			"max":[
				0.17735600471496582,
				3.2324979305267334,
				0.12059688568115234
			],
			"min":[
				-1.109209418296814,
				0.7900053262710571,
				-0.903111457824707
			],
			"type":"VEC3"
		},
		{
			"bufferView":21,
			"componentType":5126,
			"count":74,
			"type":"VEC3"
		},
		{
			"bufferView":22,
			"componentType":5126,
			"count":74,
			"type":"VEC2"
		},
		{
			"bufferView":23,
			"componentType":5123,
			"count":132,
			"type":"SCALAR"
		},
		{
			"bufferView":24,
			"componentType":5126,
			"count":74,
			"max":[
				1.9182634353637695,
				3.235187292098999,
				0.04443693161010742
			],
			"min":[
				0.7007287740707397,
				0.7595764398574829,
				-0.901732861995697
			],
			"type":"VEC3"
		},
		{
			"bufferView":25,
			"componentType":5126,
			"count":74,
			"type":"VEC3"
		},
		{
			"bufferView":26,
			"componentType":5126,
			"count":74,
			"type":"VEC2"
		},
		{
			"bufferView":27,
			"componentType":5123,
			"count":132,
			"type":"SCALAR"
		},
		{
			"bufferView":28,
			"componentType":5126,
			"count":258,
			"max":[
				1.2178517580032349,
				3.530712604522705,
				0.8352006077766418
			],
			"min":[
				-0.3344230353832245,
				1.399284839630127,
				-1.5855393409729004
			],
			"type":"VEC3"
		},
		{
			"bufferView":29,
			"componentType":5126,
			"count":258,
			"type":"VEC3"
		},
		{
			"bufferView":30,
			"componentType":5126,
			"count":258,
			"type":"VEC2"
		},
		{
			"bufferView":31,
			"componentType":5123,
			"count":624,
			"type":"SCALAR"
		}
	],
	"bufferViews":[
		{
			"buffer":0,
			"byteLength":2400,
			"byteOffset":0,
			"target":34962
		},
		{
			"buffer":0,
			"byteLength":2400,
			"byteOffset":2400,
			"target":34962
		},
		{
			"buffer":0,
			"byteLength":1600,
			"byteOffset":4800,
			"target":34962
		},
		{
			"buffer":0,
			"byteLength":1536,
			"byteOffset":6400,
			"target":34963
		},
		{
			"buffer":0,
			"byteLength":1920,
			"byteOffset":7936,
			"target":34962
		},
		{
			"buffer":0,
			"byteLength":1920,
			"byteOffset":9856,
			"target":34962
		},
		{
			"buffer":0,
			"byteLength":1280,
			"byteOffset":11776,
			"target":34962
		},
		{
			"buffer":0,
			"byteLength":816,
			"byteOffset":13056,
			"target":34963
		},
		{
			"buffer":0,
			"byteLength":23808,
			"byteOffset":13872,
			"target":34962
		},
		{
			"buffer":0,
			"byteLength":23808,
			"byteOffset":37680,
			"target":34962
		},
		{
			"buffer":0,
			"byteLength":15872,
			"byteOffset":61488,
			"target":34962
		},
		{
			"buffer":0,
			"byteLength":5760,
			"byteOffset":77360,
			"target":34963
		},
		{
			"buffer":0,
			"byteLength":576,
			"byteOffset":83120,
			"target":34962
		},
		{
			"buffer":0,
			"byteLength":576,
			"byteOffset":83696,
			"target":34962
		},
		{
			"buffer":0,
			"byteLength":384,
			"byteOffset":84272,
			"target":34962
		},
		{
			"buffer":0,
			"byteLength":144,
			"byteOffset":84656,
			"target":34963
		},
		{
			"buffer":0,
			"byteLength":480,
			"byteOffset":84800,
			"target":34962
		},
		{
			"buffer":0,
			"byteLength":480,
			"byteOffset":85280,
			"target":34962
		},
		{
			"buffer":0,
			"byteLength":320,
			"byteOffset":85760,
			"target":34962
		},
		{
			"buffer":0,
			"byteLength":120,
			"byteOffset":86080,
			"target":34963
		},
		{
			"buffer":0,
			"byteLength":888,
			"byteOffset":86200,
			"target":34962
		},
		{
			"buffer":0,
			"byteLength":888,
			"byteOffset":87088,
			"target":34962
		},
		{
			"buffer":0,
			"byteLength":592,
			"byteOffset":87976,
			"target":34962
		},
		{
			"buffer":0,
			"byteLength":264,
			"byteOffset":88568,
			"target":34963
		},
		{
			"buffer":0,
			"byteLength":888,
			"byteOffset":88832,
			"target":34962
		},
		{
			"buffer":0,
			"byteLength":888,
			"byteOffset":89720,
			"target":34962
		},
		{
			"buffer":0,
			"byteLength":592,
			"byteOffset":90608,
			"target":34962
		},
		{
			"buffer":0,
			"byteLength":264,
			"byteOffset":91200,
			"target":34963
		},
		{
			"buffer":0,
			"byteLength":3096,
			"byteOffset":91464,
			"target":34962
		},
		{
			"buffer":0,
			"byteLength":3096,
			"byteOffset":94560,
			"target":34962
		},
		{
			"buffer":0,
			"byteLength":2064,
			"byteOffset":97656,
			"target":34962
		},
		{
			"buffer":0,
			"byteLength":1248,
			"byteOffset":99720,
			"target":34963
		}
	],
	"buffers":[
		{
			"byteLength":100968,
			"uri":"data:application/octet-stream;base64,"
		}
	]
}
