{
	"asset":{
		"generator":"Khronos glTF Blender I/O v3.6.27",
		"version":"2.0"
	},
	"extensionsUsed":[
		"KHR_materials_specular"
	],
	"scene":0,
	"scenes":[
		{
			"name":"Scene",
			"nodes":[
				0
			]
		}
	],
	"nodes":[
		{
			"mesh":0,
			"name":"Tree Trunk_Material.002_0.009",
			"rotation":[
				-0.70710688829422,
				0,
				0,
				0.7071066498756409
			],
			"scale":[
				1.853158712387085,
				1.853158950805664,
				1.853158950805664
			],
			"translation":[
				4.015388488769531,
				0,
				1.4416314363479614
			]
		}
	],
	"materials":[
		{
			"doubleSided":true,
			"extensions":{
				"KHR_materials_specular":{
					"specularColorTexture":{
						"index":0
					}
				}
			},
			"name":"Material.012",
			"normalTexture":{
				"index":1
			},
			"pbrMetallicRoughness":{
				"baseColorTexture":{
					"index":2
				},
				"metallicFactor":0,
				"roughnessFactor":0.9432409405708313
			}
		},
		{
			"doubleSided":true,
			"name":"Material.014",
			"normalTexture":{
				"index":3
			},
			"pbrMetallicRoughness":{
				"baseColorTexture":{
					"index":4
				},
				"metallicFactor":0,
				"roughnessFactor":0.9066694378852844
			}
		}
	],
	"meshes":[
		{
			"name":"Tree Trunk_Material.002_0.009",
			"primitives":[
				{
					"attributes":{
						"POSITION":0,
						"NORMAL":1,
						"TEXCOORD_0":2
					},
					"indices":3,
					"material":0
				},
				{
					"attributes":{
						"POSITION":4,
						"NORMAL":5,
						"TEXCOORD_0":6
					},
					"indices":7,
					"material":1
				}
			]
		}
	],
	"textures":[
		{
			"sampler":0,
			"source":0
		},
		{
			"sampler":0,
			"source":1
		},
		{
			"sampler":0,
			"source":2
		},
		{
			"sampler":0,
			"source":3
		},
		{
			"sampler":0,
			"source":4
		}
	],
	"images":[
		{
			"bufferView":4,
			"mimeType":"image/png",
			"name":"Image"
		},
		{
			"bufferView":5,
			"mimeType":"image/png",
			"name":"Image_1"
		},
		{
			"bufferView":6,
			"mimeType":"image/png",
			"name":"Image_0"
		},
		{
			"bufferView":11,
			"mimeType":"image/png",
			"name":"Image_4"
		},
		{
			"bufferView":12,
			"mimeType":"image/png",
			"name":"Image_3"
		}
	],
	"accessors":[
		{
			"bufferView":0,
			"componentType":5126,
			"count":816,
			"max":[
				1.8638122081756592,
				0.29266613721847534,
				0.14168420433998108
			],
			"min":[
				-0.24524928629398346,
				-1.1744897365570068,
				-0.08561133593320847
			],
			"type":"VEC3"
		},
		{
			"bufferView":1,
			"componentType":5126,
			"count":816,
			"type":"VEC3"
		},
		{
			"bufferView":2,
			"componentType":5126,
			"count":816,
			"type":"VEC2"
		},
		{
			"bufferView":3,
			"componentType":5123,
			"count":2952,
			"type":"SCALAR"
		},
		{
			"bufferView":7,
			"componentType":5126,
			"count":728,
			"max":[
				2.6376290321350098,
				-0.1644435077905655,
				0.26892325282096863
			],
			"min":[
				2.1376287937164307,
				-0.4644435942173004,
				-1.585894437994284e-07
			],
			"type":"VEC3"
		},
		{
			"bufferView":8,
			"componentType":5126,
			"count":728,
			"type":"VEC3"
		},
		{
			"bufferView":9,
			"componentType":5126,
			"count":728,
			"type":"VEC2"
		},
		{
			"bufferView":10,
			"componentType":5123,
			"count":2688,
			"type":"SCALAR"
		}
	],
	"bufferViews":[
		{
			"buffer":0,
			"byteLength":9792,
			"byteOffset":0,
			"target":34962
		},
		{
			"buffer":0,
			"byteLength":9792,
			"byteOffset":9792,
			"target":34962
		},
		{
			"buffer":0,
			"byteLength":6528,
			"byteOffset":19584,
			"target":34962
		},
		{
			"buffer":0,
			"byteLength":5904,
			"byteOffset":26112,
			"target":34963
		},
		{
			"buffer":0,
			"byteLength":29172,
			"byteOffset":32016
		},
		{
			"buffer":0,
			"byteLength":1109371,
			"byteOffset":61188
		},
		{
			"buffer":0,
			"byteLength":279940,
			"byteOffset":1170560
		},
		{
			"buffer":0,
			"byteLength":8736,
			"byteOffset":1450500,
			"target":34962
		},
		{
			"buffer":0,
			"byteLength":8736,
			"byteOffset":1459236,
			"target":34962
		},
		{
			"buffer":0,
			"byteLength":5824,
			"byteOffset":1467972,
			"target":34962
		},
		{
			"buffer":0,
			"byteLength":5376,
			"byteOffset":1473796,
			"target":34963
		},
		{
			"buffer":0,
			"byteLength":744759,
			"byteOffset":1479172
		},
		{
			"buffer":0,
			"byteLength":166197,
			"byteOffset":2223932
		}
	],
	"samplers":[
		{
			"magFilter":9729,
			"minFilter":9987
		}
	],
	"buffers":[
		{
			"byteLength":2390132,
			"uri":"data:application/octet-stream;base64,"
		}
	]
}
